<svg xmlns="http://www.w3.org/2000/svg" xmlns:xlink="http://www.w3.org/1999/xlink" width="16" height="16" viewBox="0 0 16 16">
  <defs>
    <path id="+-a" d="M7.99999975,8.88178447e-16 C12.4193572,8.88178447e-16 16,3.58064231 16,7.99999975 C16,12.4193572 12.4193562,16 7.99999975,16 C3.58064331,16 0,12.4193565 0,7.99999975 C0,3.58064301 3.58064331,0 7.99999975,0 Z M7.9999991,14.9139576 C11.8207655,14.9139576 14.9139576,11.8207664 14.9139576,8 C14.9139576,4.1792336 11.8207664,1.086042 7.9999995,1.086042 C4.1792326,1.086042 1.0860419,4.1792335 1.0860419,8 C1.0860419,11.8207665 4.1792326,14.9139576 7.9999995,14.9139576 Z M12.2508755,8.5627146 L8.5698814,8.5627155 L8.5770492,12.2472925 C8.5770492,12.5626783 8.3225889,12.8171749 8.0071668,12.8171749 C7.8494739,12.8171749 7.7060799,12.7526626 7.6021461,12.6487293 C7.4982118,12.544795 7.433701,12.4014015 7.433701,12.2437086 L7.433701,8.5627146 L3.7562917,8.5627146 C3.5985985,8.5627146 3.4552047,8.4982033 3.3512707,8.394269 C3.2473367,8.2903347 3.1828256,8.1469412 3.1828256,7.9892483 C3.1828256,7.673861 3.4372852,7.4193659 3.752708,7.4193659 L7.4337015,7.4193659 L7.4337015,3.7383726 C7.4337015,3.4229858 7.6881976,3.1684904 8.0035839,3.1684904 C8.3189697,3.1684904 8.5734663,3.4229501 8.5734663,3.7383726 L8.5698824,7.4229498 L12.2508755,7.4229498 C12.5662623,7.4229498 12.8207579,7.6774459 12.8207579,7.9928322 C12.8207579,8.308219 12.5662985,8.5627146 12.2508755,8.5627146 Z"/>
  </defs>
  <g fill="none" fill-rule="evenodd">
    <use fill="gray" xlink:href="#+-a"/>
  </g>
</svg>
