<svg xmlns="http://www.w3.org/2000/svg" width="199" height="79" viewBox="0 0 199 79">
  <g fill="none" fill-rule="evenodd">
    <path fill="#006567" d="M29.1891892 29.3362445C29.6216216 28.4454148 29.8378378 28 30.9189189 28L39.5675676 28C40 28 40.2162166 28.1513207 40.4324328 28.3740281 40.5877677 28.6121274 40.6810924 28.8210907 40.4324324 29.3362445L27.8918919 52.9432314 41.0810811 77.6637555C41.2767345 78.017746 41.3160412 78.4011584 41.0810825 78.6845885 40.8648663 78.9072959 40.6486486 79 40.2162162 79L31.5675676 79C30.4864865 79 30.2702703 78.3318777 29.8378378 77.6637555L20.972973 60.9606987 12.1081081 77.6637555C11.6756757 78.5545852 11.4594595 79 10.3783784 79L1.72972973 79C1.2972973 79 1.04022217 78.8567324.864864865 78.5545852.68950756 78.2524379.648648649 77.8864629.864864865 77.441048L14.0540541 52.720524 1.94594595 29.558952C1.72972973 29.1135371 1.72972973 28.8908297 1.94594595 28.4454148 2.14562982 28.1360843 2.37837838 28 2.81081081 28L11.4594595 28C12.5405405 28 12.7567568 28.6681223 13.1891892 29.3362445L21.1891892 44.9257642 29.1891892 29.3362445zM88 29.3246753C88 28.6623377 88.4324324 28 89.2972973 28L96.2162162 28C96.8648649 28 97.5135135 28.4415584 97.5135135 29.3246753L97.5135135 77.6753247C97.5135135 78.3376623 97.0810811 79 96.2162162 79L89.0810811 79C88.2162162 79 87.7108759 78.350708 87.3513514 77.6753247L72.6486486 48.5324675 72.6486486 77.6753247C72.6486486 78.3376623 72.2162162 79 71.3513514 79L64.4324324 79C63.7837838 79 63.1351351 78.5584416 63.1351351 77.6753247L63.1351351 29.3246753C63.1351351 28.6623377 63.7837838 28 64.4324324 28L71.5675676 28C72.6486486 28 72.8648649 28.6623377 73.2972973 29.3246753L88 58.4675325 88 29.3246753zM46.0540541 77.6753247L46.0540541 29.3246753C46.0540541 28.6623377 46.4864865 28 47.3513514 28L54.2702703 28C54.9189189 28 55.5675676 28.4415584 55.5675676 29.3246753L55.5675676 77.6753247C55.5675676 78.3376623 55.1351351 79 54.2702703 79L47.3513514 79C46.4864865 79 46.0540541 78.3376623 46.0540541 77.6753247L46.0540541 77.6753247zM125.621622 36.3924051C121.945946 36.3924051 118.918919 37.2531646 116.540541 40.4810127 114.378378 43.4936709 113.081081 47.3670886 113.081081 52.9620253 113.081081 58.3417722 113.297297 62.6455696 115.243243 65.443038 116.972973 68.2405063 120 70.1772152 123.675676 70.1772152 127.783784 70.1772152 130.810811 69.1012658 130.810811 69.1012658L130.810811 58.556962 123.675676 58.556962C123.027027 58.556962 122.378378 57.9113924 122.378378 57.2658228L122.378378 51.2405063C122.378378 50.5949367 122.810811 49.9493671 123.675676 49.9493671L139.027027 49.9493671C139.675676 49.9493671 140.324324 50.5949367 140.324324 51.2405063L140.324324 75.1265823C139.891892 75.3417722 132.324324 79 123.243243 79 115.675676 79 111.351351 76.2025316 108.324324 72.1139241 104.864865 67.5949367 103.567568 60.0632911 103.567568 53.1772152 103.567568 48.2278481 104.216216 43.7088608 105.945946 39.835443 107.675676 35.7468354 110.702703 32.5189873 113.72973 30.7974684 117.189189 28.8607595 121.297297 28 125.405405 28L126.486486 28C132.756757 28 136.432432 29.5063291 137.72973 30.1518987 138.810811 30.5822785 139.027027 31.0126582 139.027027 31.6582278L139.027027 37.4683544C139.027027 37.8987342 138.810811 38.1139241 138.594595 38.3291139 138.378378 38.5443038 137.945946 38.5443038 137.72973 38.5443038 135.351351 37.6835443 131.698999 36.3924055 126.726026 36.3924055L125.621622 36.3924051z"/>
    <g transform="translate(153.432)">
      <path fill="#B0D400" d="M34.3243243,2.16438356 C34.3243243,2.16438356 17.6756757,31.8164384 17.027027,32.6821918 L28.0540541,52.8109589 C28.4864865,53.460274 29.1351351,54.3260274 30.2162162,54.3260274 L38,54.3260274 C38.4324324,54.3260274 38.8733732,54.2258248 39.0810811,53.8931507 C39.288789,53.5604766 39.2972973,53.0273973 39.0810811,52.5945205 L28.2702703,32.6821918 L45.3513514,2.38082192 C45.5675676,1.94794521 45.6275042,1.57080079 45.3513507,1.12042237 C45.0751971,0.670043955 44.7027027,0.649315068 44.2702703,0.649315068 L36.4864865,0.649315068 C35.4054054,0.649315068 34.7567568,1.29863014 34.3243243,2.16438356 Z"/>
      <path fill="#006567" d="M2.97297297,11.6876712 C2.75675676,12.1205479 2.75675676,12.5534247 2.97297297,12.9863014 L8.16216216,22.0767123 L0.162162162,36.5780822 C-0.0540540541,37.0109589 -0.0540540541,37.4438356 0.162162162,37.8767123 C0.392640799,38.2445063 0.810810811,38.309589 1.24324324,38.309589 L8.81081081,38.309589 C9.89189189,38.309589 10.5405405,37.4438356 10.972973,36.7945205 C10.972973,36.7945205 18.972973,22.509589 19.4054054,22.0767123 L14,12.769863 C13.5675676,12.1205479 12.9189189,11.2547945 11.8378378,11.2547945 L4.05405405,11.2547945 C3.62162162,11.2547945 3.21380782,11.3497314 2.97297297,11.6876712 Z"/>
    </g>
  </g>
</svg>
